<?xml version="1.0" encoding="UTF-8"?>
<svg id="Layer_2" data-name="Layer 2" xmlns="http://www.w3.org/2000/svg" viewBox="0 0 16 16">
  <defs>
    <style>
      .cls-1 {
        fill: #fffdd0;
      }

      .cls-2 {
        fill: #503333;
      }
    </style>
  </defs>
  <g id="Layer_1-2" data-name="Layer 1">
    <circle class="cls-2" cx="8" cy="8" r="8"/>
    <path class="cls-1" d="m10.63,3.34c-.15-.11-.3-.19-.47-.27-.02-.01-.05-.02-.07-.03-.77-.36-1.66-.57-2.7-.57-.97,0-1.66.01-2.31.01s-1.26,0-2.01-.01v.21c1.39.16,1.42,1.18,1.42,2.66v5.32c0,1.74-.3,2.51-1.47,2.66v.21c.44-.01.98-.01,1.53-.01,1.1,0,2.26.01,2.99.01,3.11,0,5.43-2.36,5.43-5.53,0-2.07-.84-3.72-2.35-4.66Zm-2.55,9.67c-1.89,0-2.78-1.15-2.78-1.88,0-.12-.01-.23-.01-.36V2.9c.64-.04,1.27-.06,1.94-.06h.06c-1.02.32-1.95,1.09-1.95,2.45,0,3.33,5.04,2.97,5.04,5.66,0,1.03-.82,2.05-2.3,2.05Zm3.02-1.83c.05-.16.06-.34.06-.51,0-3.16-5.09-2.73-5.09-5.51,0-1.28.89-2.17,2.09-2.17.67,0,1.61.36,2.36.98.91.85,1.39,2.21,1.39,4.05,0,1.3-.29,2.35-.81,3.16Z"/>
  </g>
</svg>